<?xml version="1.0" standalone="no"?>
<!DOCTYPE svg PUBLIC "-//W3C//DTD SVG 20010904//EN"
 "http://www.w3.org/TR/2001/REC-SVG-20010904/DTD/svg10.dtd">
<svg version="1.0" xmlns="http://www.w3.org/2000/svg"
 width="2450.000000pt" height="920.000000pt" viewBox="0 0 2450.000000 920.000000"
 preserveAspectRatio="xMidYMid meet">
<metadata>
Created by potrace 1.16, written by Peter Selinger 2001-2019
</metadata>
<g transform="translate(0.000000,920.000000) scale(0.100000,-0.100000)"
fill="#000000" stroke="none">
<path d="M1074 7587 c-3 -8 -4 -47 -2 -88 l3 -74 90 0 90 0 0 85 0 85 -88 3
c-67 2 -89 0 -93 -11z"/>
<path d="M2006 7507 c-14 -10 -16 -26 -14 -102 l3 -90 104 -3 c77 -2 107 1
113 10 4 7 8 48 8 90 0 102 -7 108 -114 108 -51 0 -89 -5 -100 -13z"/>
<path d="M1520 7491 c-12 -23 -13 -130 -2 -149 6 -9 33 -12 98 -10 l89 3 3 73
c2 46 -2 79 -9 88 -8 10 -35 14 -90 14 -67 0 -80 -3 -89 -19z"/>
<path d="M2852 7378 c-17 -17 -17 -259 0 -276 8 -8 56 -12 149 -12 112 0 141
3 153 16 13 12 16 40 16 138 0 81 -4 126 -12 134 -8 8 -57 12 -153 12 -96 0
-145 -4 -153 -12z"/>
<path d="M2282 7274 c-21 -14 -22 -22 -22 -153 0 -93 4 -141 12 -149 8 -8 56
-12 148 -12 l135 -1 53 -48 54 -48 -1 -247 -2 -247 30 -29 29 -30 257 0 257 0
29 29 29 29 0 232 c0 147 -4 239 -11 252 -23 43 -65 49 -324 47 l-243 -2 -51
43 -51 43 0 138 c0 176 7 169 -175 169 -102 0 -135 -3 -153 -16z"/>
<path d="M1118 7239 c-15 -9 -18 -26 -18 -119 0 -59 3 -115 6 -124 5 -14 27
-16 139 -16 112 0 134 2 139 16 3 9 6 65 6 124 0 98 -2 110 -19 120 -25 13
-230 13 -253 -1z"/>
<path d="M1702 7114 c-21 -14 -22 -22 -22 -149 0 -108 3 -137 16 -149 12 -13
41 -16 151 -16 l136 0 58 -62 58 -63 1 -151 c0 -133 2 -153 18 -167 27 -24
352 -25 376 -1 13 13 16 43 16 168 0 135 -2 155 -18 169 -16 14 -44 17 -185
17 l-166 0 -51 59 -52 60 -1 136 c-2 123 -4 138 -21 151 -30 21 -283 20 -314
-2z"/>
<path d="M5525 6714 c-179 -27 -389 -107 -608 -232 l-124 -71 -117 59 c-319
162 -671 220 -1041 171 -88 -12 -163 -21 -167 -21 -4 0 -8 -81 -10 -179 -3
-175 -4 -180 -28 -207 -48 -52 -64 -54 -394 -54 l-306 0 -30 -52 -30 -53 0
-300 c0 -283 -1 -302 -20 -333 -22 -36 -88 -71 -133 -72 l-28 0 3 -957 3 -958
37 -135 c92 -343 255 -672 455 -920 72 -89 264 -277 348 -341 261 -199 599
-350 943 -419 317 -64 739 -58 1097 16 410 84 806 287 1035 530 297 316 484
660 591 1089 l23 90 3 1097 c4 1090 3 1098 -18 1180 -61 242 -189 478 -354
656 -96 103 -291 250 -401 303 -236 112 -484 151 -729 113z m-1631 -1129 c81
-21 140 -65 174 -128 l27 -52 5 -855 5 -855 26 -63 c89 -209 247 -345 451
-386 279 -57 561 42 699 245 50 74 72 125 93 216 14 63 16 169 16 886 l0 813
26 52 c52 106 150 147 328 140 160 -7 244 -48 291 -141 l25 -51 0 -908 c0
-851 -1 -913 -19 -1005 -46 -238 -159 -440 -344 -620 -213 -207 -409 -298
-692 -322 -373 -33 -731 20 -977 145 -246 124 -450 371 -547 660 -61 182 -61
180 -61 1153 l0 886 24 50 c21 45 47 76 99 115 52 39 244 53 351 25z"/>
<path d="M1242 6678 c-16 -16 -16 -180 0 -196 8 -8 47 -12 110 -12 116 0 118
2 118 110 0 108 -2 110 -118 110 -63 0 -102 -4 -110 -12z"/>
<path d="M1556 6444 c-13 -12 -16 -41 -16 -149 0 -173 -7 -167 185 -164 l138
1 49 -50 c44 -43 49 -52 39 -70 -16 -29 -15 -442 1 -477 23 -51 46 -55 308
-55 265 0 287 4 309 58 9 20 11 95 9 250 l-3 222 -28 27 -27 28 -258 2 -257 2
-52 56 -53 56 0 117 c0 168 7 162 -180 162 -122 0 -151 -3 -164 -16z"/>
<path d="M1284 6097 c-3 -8 -4 -45 -2 -83 l3 -69 84 -3 c61 -2 87 1 92 10 13
20 11 132 -3 146 -17 17 -167 16 -174 -1z"/>
<path d="M1657 5964 c-14 -14 -8 -151 7 -163 9 -8 45 -11 98 -9 l83 3 0 85 0
85 -90 3 c-50 1 -94 0 -98 -4z"/>
<path d="M17978 5794 c-135 -32 -214 -97 -279 -226 -74 -146 -779 -1640 -779
-1649 0 -5 94 -9 218 -9 l217 0 360 762 c388 821 375 798 453 798 59 0 87 -23
124 -102 19 -40 176 -385 348 -765 l313 -693 219 0 c159 0 218 3 218 12 0 6
-174 394 -387 862 -379 831 -389 852 -443 907 -58 59 -123 91 -224 110 -72 13
-292 10 -358 -7z"/>
<path d="M7890 5093 c0 -766 1 -769 66 -893 69 -132 202 -221 387 -262 78 -17
141 -21 423 -25 359 -6 510 3 632 37 201 56 326 172 388 360 17 51 19 111 22
763 l3 707 -195 0 -195 0 -3 -657 -3 -658 -23 -50 c-31 -67 -62 -98 -135 -132
l-62 -28 -335 0 c-296 0 -341 2 -386 18 -66 23 -125 74 -155 134 l-24 48 -3
663 -3 662 -199 0 -200 0 0 -687z"/>
<path d="M10310 5616 l0 -165 633 -4 c516 -2 639 -6 672 -17 56 -21 140 -105
154 -155 35 -129 -30 -253 -158 -302 -41 -15 -107 -18 -566 -23 -361 -4 -531
-10 -556 -18 -59 -20 -114 -66 -140 -119 -24 -48 -24 -48 -27 -475 l-3 -428
201 0 200 0 0 349 c0 267 3 351 13 359 8 7 170 12 457 14 418 4 450 6 525 26
241 66 397 208 449 408 25 98 21 240 -9 330 -14 41 -36 91 -49 112 -67 107
-208 199 -371 244 -78 22 -95 22 -752 26 l-673 3 0 -165z"/>
<path d="M12965 5769 c-336 -48 -521 -255 -502 -559 17 -265 160 -419 452
-486 56 -13 160 -18 505 -23 471 -8 474 -8 563 -67 98 -65 103 -228 10 -316
-68 -65 -37 -63 -800 -66 l-693 -3 0 -169 0 -170 648 0 c802 0 867 6 1039 90
185 91 273 239 273 460 0 173 -40 279 -140 374 -84 80 -216 140 -370 167 -38
6 -231 13 -465 16 -358 4 -407 6 -466 23 -109 32 -170 120 -155 223 9 57 54
120 105 146 71 37 148 41 744 41 l577 0 0 165 0 165 -632 -1 c-348 -1 -660 -5
-693 -10z"/>
<path d="M15565 5765 c-327 -45 -558 -192 -678 -430 -103 -205 -127 -561 -56
-825 11 -41 39 -113 61 -160 34 -69 59 -102 133 -175 98 -99 184 -151 326
-199 161 -54 221 -59 792 -63 l527 -5 0 171 0 170 -527 4 c-572 4 -574 4 -698
63 -112 53 -187 148 -226 286 -20 71 -23 106 -23 243 -1 122 3 176 17 225 41
154 118 254 241 311 126 59 153 61 709 66 l507 5 0 164 0 164 -507 -1 c-344
-1 -537 -5 -598 -14z"/>
<path d="M19560 5130 c0 -724 1 -742 65 -876 67 -139 226 -254 420 -303 130
-33 274 -41 768 -41 l467 0 0 170 0 170 -487 0 c-529 0 -575 4 -679 55 -29 14
-68 43 -88 65 -66 74 -66 71 -66 777 l0 633 -200 0 -200 0 0 -650z"/>
<path d="M22075 5766 c-309 -49 -486 -195 -514 -423 -25 -205 53 -371 215
-455 35 -18 64 -35 64 -38 0 -3 -24 -16 -52 -30 -30 -14 -81 -52 -119 -90 -85
-84 -110 -145 -117 -281 -14 -308 191 -490 597 -529 58 -5 370 -10 694 -10
l587 0 0 170 0 170 -605 0 c-622 0 -671 3 -747 41 -124 63 -151 240 -50 330
84 74 73 73 765 77 l617 3 0 149 0 149 -612 3 c-679 4 -679 4 -754 70 -50 44
-67 83 -67 151 1 118 86 195 238 217 39 5 322 10 643 10 l572 0 0 165 0 165
-637 -1 c-457 -1 -661 -5 -718 -13z"/>
<path d="M13615 3409 c-160 -20 -294 -110 -357 -238 -22 -44 -23 -56 -23 -311
0 -261 0 -266 25 -315 13 -27 47 -73 75 -101 92 -92 203 -134 355 -134 152 0
263 42 355 134 28 28 62 74 75 101 25 49 25 54 25 315 0 261 0 266 -25 315
-80 163 -292 262 -505 234z m163 -89 c115 -27 225 -115 255 -204 24 -70 25
-440 1 -509 -37 -109 -172 -202 -309 -214 -127 -10 -252 39 -330 129 -58 68
-65 106 -65 338 0 237 7 271 72 345 88 100 239 146 376 115z"/>
<path d="M17914 3410 c-132 -18 -257 -92 -324 -193 -56 -83 -62 -127 -58 -387
3 -221 3 -226 30 -280 52 -106 176 -201 298 -229 25 -6 89 -11 143 -11 154 0
260 43 356 145 93 98 96 110 96 405 l0 255 -27 55 c-84 172 -293 269 -514 240z
m198 -100 c123 -38 216 -131 238 -237 7 -34 11 -128 8 -246 -4 -225 -12 -252
-104 -336 -181 -166 -491 -116 -596 97 -22 45 -23 57 -23 272 0 218 1 227 24
274 77 156 272 232 453 176z"/>
<path d="M19000 3410 c-133 -17 -253 -84 -320 -178 -68 -95 -70 -108 -70 -534
l0 -378 50 0 49 0 3 383 c3 366 4 384 24 428 30 65 94 125 172 162 61 29 76
32 162 32 75 -1 107 -5 152 -23 74 -30 155 -103 184 -167 24 -50 24 -53 24
-432 l0 -383 56 0 55 0 -3 393 -3 392 -27 57 c-82 176 -289 277 -508 248z"/>
<path d="M10650 2860 l0 -540 55 0 55 0 0 540 0 540 -55 0 -55 0 0 -540z"/>
<path d="M10910 3355 l0 -45 190 0 190 0 0 -495 0 -495 50 0 50 0 0 495 0 495
190 0 190 0 0 45 0 45 -430 0 -430 0 0 -45z"/>
<path d="M12493 3385 c-142 -44 -222 -144 -223 -276 0 -115 61 -203 180 -258
48 -22 74 -26 200 -31 161 -7 202 -19 258 -73 45 -43 64 -81 64 -131 -1 -80
-45 -144 -127 -182 -48 -23 -59 -24 -287 -24 l-238 0 0 -46 0 -46 253 4 c206
4 260 7 297 21 69 26 139 85 174 147 27 48 31 65 30 125 0 87 -23 134 -94 198
-75 68 -138 88 -295 93 -140 6 -196 20 -246 61 -91 77 -90 216 4 287 73 56 94
60 345 64 l232 4 0 39 0 39 -242 -1 c-171 0 -255 -4 -285 -14z"/>
<path d="M14300 2860 l0 -540 415 0 415 0 0 45 0 45 -365 0 -365 0 0 495 0
495 -50 0 -50 0 0 -540z"/>
<path d="M15212 3003 l3 -398 28 -54 c81 -153 238 -241 432 -241 191 0 361 94
432 239 l28 56 3 398 3 397 -51 0 -50 0 0 -363 c0 -423 -2 -434 -79 -519 -88
-96 -224 -142 -350 -119 -123 23 -217 88 -269 186 l-27 50 -3 383 -3 382 -50
0 -50 0 3 -397z"/>
<path d="M16290 3355 l0 -45 190 0 190 0 0 -495 0 -495 50 0 50 0 0 495 0 495
190 0 190 0 0 45 0 45 -430 0 -430 0 0 -45z"/>
<path d="M17270 2860 l0 -540 50 0 50 0 0 540 0 540 -50 0 -50 0 0 -540z"/>
<path d="M19923 3385 c-278 -86 -312 -401 -56 -527 62 -30 74 -32 212 -38 159
-8 194 -17 253 -69 116 -102 79 -261 -75 -326 -29 -12 -83 -15 -272 -15 l-235
0 0 -46 0 -46 253 4 252 3 66 31 c121 57 183 146 182 259 0 74 -19 120 -73
179 -75 82 -183 116 -366 116 -79 0 -97 4 -144 28 -30 15 -68 44 -84 65 -28
35 -31 46 -31 107 0 61 3 72 30 107 18 21 57 51 90 68 l60 30 233 3 232 4 0
39 0 39 -242 -1 c-171 0 -255 -4 -285 -14z"/>
</g>
</svg>
